<?xml version="1.0" encoding="UTF-8" standalone="no"?>
<!-- Created with Inkscape (http://www.inkscape.org/) -->

<svg
   xmlns:dc="http://purl.org/dc/elements/1.1/"
   xmlns:cc="http://creativecommons.org/ns#"
   xmlns:rdf="http://www.w3.org/1999/02/22-rdf-syntax-ns#"
   xmlns:svg="http://www.w3.org/2000/svg"
   xmlns="http://www.w3.org/2000/svg"
   xmlns:sodipodi="http://sodipodi.sourceforge.net/DTD/sodipodi-0.dtd"
   xmlns:inkscape="http://www.inkscape.org/namespaces/inkscape"
   id="svg2"
   version="1.1"
   inkscape:version="0.91 r13725"
   xml:space="preserve"
   width="291"
   height="154.4"
   viewBox="0 0 727.57251 386.28876"
   sodipodi:docname="rainier.svg"><metadata
     id="metadata8"><rdf:RDF><cc:Work
         rdf:about=""><dc:format>image/svg+xml</dc:format><dc:type
           rdf:resource="http://purl.org/dc/dcmitype/StillImage" /><dc:title></dc:title></cc:Work></rdf:RDF></metadata><defs
     id="defs6"><clipPath
       clipPathUnits="userSpaceOnUse"
       id="clipPath16"><path
         d="m 0,309.031 582.058,0 L 582.058,0 0,0 0,309.031 Z"
         id="path18"
         inkscape:connector-curvature="0" /></clipPath></defs><sodipodi:namedview
     pagecolor="#ffffff"
     bordercolor="#666666"
     borderopacity="1"
     objecttolerance="10"
     gridtolerance="10"
     guidetolerance="10"
     inkscape:pageopacity="0"
     inkscape:pageshadow="2"
     inkscape:window-width="722"
     inkscape:window-height="480"
     id="namedview4"
     showgrid="false"
     inkscape:zoom="0.42882324"
     inkscape:cx="363.78625"
     inkscape:cy="193.14438"
     inkscape:window-x="0"
     inkscape:window-y="0"
     inkscape:window-maximized="0"
     inkscape:current-layer="g10" /><g
     id="g10"
     inkscape:groupmode="layer"
     inkscape:label="rainier"
     transform="matrix(1.25,0,0,-1.25,0,386.28875)"><g
       id="g12"><g
         id="g14"
         clip-path="url(#clipPath16)"><g
           id="g20"
           transform="translate(78.5518,78.8447)"><path
             d="M 0,0 C 3.014,0.595 4.359,2.36 3.839,5.061 2.581,11.57 1.324,18.079 0.067,24.589 c -0.52,2.7 -2.467,3.835 -5.561,3.225 -3.925,-0.776 -7.847,-1.572 -11.766,-2.389 1.928,-9.251 3.857,-18.503 5.785,-27.754 C -7.653,-1.533 -3.828,-0.756 0,0 m 20.219,5.09 c 1.24,-6.981 -0.836,-12.068 -5.938,-15.276 4.333,-8.59 8.601,-17.203 12.804,-25.838 0.559,-1.189 -0.001,-1.934 -1.231,-2.155 -3.878,-0.699 -7.753,-1.42 -11.625,-2.161 -1.117,-0.215 -1.775,0.197 -2.18,1.089 -4.199,8.31 -8.458,16.6 -12.779,24.868 -2.633,-0.529 -5.265,-1.068 -7.895,-1.616 1.813,-8.7 3.626,-17.399 5.44,-26.099 0.215,-1.035 -0.324,-1.795 -1.437,-2.029 -3.862,-0.812 -7.72,-1.645 -11.575,-2.5 -1.111,-0.247 -1.917,0.223 -2.148,1.255 -5.908,26.43 -11.816,52.86 -17.723,79.289 -0.231,1.033 0.35,1.813 1.55,2.079 10.036,2.226 20.094,4.316 30.172,6.271 C 6.995,44.459 13.964,40.286 15.69,30.502 17.2,22.031 18.71,13.561 20.219,5.09"
             style="fill:#000000;fill-opacity:1;fill-rule:nonzero;stroke:none"
             id="path22"
             inkscape:connector-curvature="0" /></g><g
           id="g24"
           transform="translate(159.5662,105.4164)"><path
             d="m 0,0 c -1.339,-9.823 -2.613,-19.646 -3.824,-29.469 4.846,0.617 9.694,1.202 14.546,1.755 C 7.211,-18.461 3.637,-9.222 0,0 m 22.691,-53.645 c -1.014,-0.107 -1.634,0.359 -1.961,1.281 -1.678,4.289 -3.371,8.574 -5.078,12.855 -7.16,-0.792 -14.314,-1.655 -21.461,-2.59 -0.602,-4.559 -1.19,-9.119 -1.764,-13.678 -0.098,-0.974 -0.59,-1.574 -1.602,-1.712 -3.673,-0.498 -7.344,-1.016 -11.013,-1.553 -1.236,-0.181 -1.89,0.363 -1.723,1.565 2.776,24.257 5.968,48.519 9.575,72.776 0.104,1.08 0.771,1.595 1.854,1.733 5.573,0.714 11.15,1.387 16.73,2.018 1.085,0.123 1.855,-0.218 2.212,-1.242 9.268,-22.705 18.129,-45.514 26.584,-68.416 0.448,-1.127 -0.058,-1.811 -1.412,-1.94 -3.648,-0.347 -7.295,-0.713 -10.941,-1.097"
             style="fill:#000000;fill-opacity:1;fill-rule:nonzero;stroke:none"
             id="path26"
             inkscape:connector-curvature="0" /></g><g
           id="g28"
           transform="translate(228.3229,55.6304)"><path
             d="m 0,0 c -1.243,-0.077 -1.849,0.519 -1.917,1.575 -1.501,23.508 -3.002,47.015 -4.502,70.523 -0.068,1.056 0.496,1.729 1.826,1.812 4.189,0.26 8.379,0.497 12.57,0.712 1.21,0.062 1.967,-0.537 2.019,-1.594 C 11.159,49.501 12.323,25.974 13.487,2.448 13.539,1.391 12.892,0.724 11.76,0.666 7.839,0.466 3.919,0.244 0,0"
             style="fill:#000000;fill-opacity:1;fill-rule:nonzero;stroke:none"
             id="path30"
             inkscape:connector-curvature="0" /></g><g
           id="g32"
           transform="translate(324.2594,131.3784)"><path
             d="m 0,0 c 1.209,-0.031 1.919,-0.686 1.89,-1.744 -0.64,-23.547 -1.28,-47.093 -1.921,-70.64 -0.029,-1.057 -0.726,-1.673 -1.857,-1.644 -2.981,0.076 -5.961,0.14 -8.942,0.191 -1.02,0.017 -1.579,0.449 -2.018,1.408 -6.897,13.577 -14.063,27.089 -21.494,40.526 0.06,-13.365 0.121,-26.73 0.181,-40.095 0.005,-1.057 -0.558,-1.694 -1.804,-1.702 -3.547,-0.022 -7.095,-0.061 -10.642,-0.119 -1.131,-0.018 -1.822,0.604 -1.841,1.662 -0.419,23.552 -0.838,47.103 -1.258,70.655 -0.019,1.058 0.695,1.706 1.905,1.726 3.187,0.052 6.374,0.09 9.561,0.114 1.089,0.009 1.697,-0.411 2.186,-1.361 7.655,-13.425 15.042,-26.927 22.162,-40.497 0.186,13.363 0.372,26.726 0.558,40.089 0.015,1.058 0.628,1.685 1.96,1.665 C -7.582,0.175 -3.791,0.097 0,0"
             style="fill:#000000;fill-opacity:1;fill-rule:nonzero;stroke:none"
             id="path34"
             inkscape:connector-curvature="0" /></g><g
           id="g36"
           transform="translate(359.9298,55.7346)"><path
             d="m 0,0 c -1.243,0.075 -1.771,0.742 -1.709,1.797 1.384,23.515 2.769,47.03 4.153,70.545 0.062,1.057 0.703,1.655 2.032,1.575 4.19,-0.254 8.379,-0.531 12.567,-0.83 C 18.25,73 18.929,72.314 18.852,71.258 17.13,47.765 15.409,24.273 13.688,0.78 13.61,-0.275 12.886,-0.857 11.756,-0.777 7.838,-0.496 3.92,-0.237 0,0"
             style="fill:#000000;fill-opacity:1;fill-rule:nonzero;stroke:none"
             id="path38"
             inkscape:connector-curvature="0" /></g><g
           id="g40"
           transform="translate(461.3003,107.2418)"><path
             d="m 0,0 c -0.155,-1.048 -0.738,-1.708 -2.161,-1.5 -9.763,1.428 -19.541,2.728 -29.33,3.899 -0.646,-5.391 -1.291,-10.783 -1.936,-16.175 7.344,-0.879 14.681,-1.831 22.011,-2.857 1.17,-0.163 1.782,-0.892 1.618,-2.044 -0.489,-3.457 -0.978,-6.913 -1.468,-10.37 -0.163,-1.152 -0.945,-1.682 -2.099,-1.52 -7.238,1.012 -14.483,1.952 -21.735,2.82 -0.62,-5.182 -1.24,-10.364 -1.86,-15.546 9.392,-1.124 18.773,-2.371 28.14,-3.741 1.366,-0.2 1.743,-0.791 1.573,-1.942 -0.516,-3.488 -1.032,-6.977 -1.548,-10.465 -0.155,-1.047 -0.698,-1.607 -2.045,-1.41 -13.778,2.015 -27.585,3.761 -41.414,5.237 -1.014,0.108 -1.624,0.81 -1.514,1.862 2.463,23.426 4.927,46.853 7.391,70.279 0.11,1.053 0.899,1.609 1.984,1.493 14.782,-1.578 29.541,-3.444 44.268,-5.598 C 1.316,12.211 1.704,11.511 1.548,10.464 1.032,6.976 0.516,3.488 0,0"
             style="fill:#000000;fill-opacity:1;fill-rule:nonzero;stroke:none"
             id="path42"
             inkscape:connector-curvature="0" /></g><g
           id="g44"
           transform="translate(517.6641,71.1112)"><path
             d="M 0,0 C 2.994,-0.614 4.908,0.496 5.473,3.189 6.563,8.401 7.653,13.612 8.742,18.824 9.307,21.516 7.963,23.312 4.9,23.94 0.975,24.743 -2.953,25.526 -6.885,26.287 -8.434,18.29 -9.983,10.294 -11.531,2.297 -7.685,1.552 -3.841,0.786 0,0 m 19.904,-2.639 c -1.341,-5.989 -4.46,-9.729 -9.186,-11.192 0.363,-7.837 0.685,-15.671 0.964,-23.501 0.057,-1.313 -0.748,-1.784 -1.971,-1.512 -3.633,0.804 -7.268,1.59 -10.907,2.356 -1.113,0.235 -1.562,0.869 -1.591,1.848 -0.365,7.172 -0.766,14.348 -1.202,21.525 -3.377,0.687 -6.756,1.358 -10.137,2.013 -1.308,-6.75 -2.615,-13.501 -3.923,-20.252 -0.202,-1.039 -0.992,-1.532 -2.109,-1.317 -3.648,0.7 -7.299,1.381 -10.953,2.043 -1.118,0.203 -1.677,0.947 -1.49,1.989 4.16,23.185 8.321,46.37 12.481,69.555 0.187,1.042 1.016,1.539 2.211,1.322 C -8.344,40.505 1.205,38.649 10.735,36.671 21.948,34.335 26.728,27.804 24.542,18.112 22.996,11.195 21.45,4.278 19.904,-2.639"
             style="fill:#000000;fill-opacity:1;fill-rule:nonzero;stroke:none"
             id="path46"
             inkscape:connector-curvature="0" /></g><g
           id="g48"
           transform="translate(71.301,142.2947)"><path
             d="m 0,0 c -1.588,-2.448 -2.382,-4.036 -2.382,-4.763 0,-0.727 0.298,-1.256 0.893,-1.588 0,-0.065 -0.595,-0.561 -1.786,-1.488 -1.059,-0.529 -2.249,-0.794 -3.572,-0.794 -1.324,0 -2.283,0.149 -2.878,0.446 -0.595,0.298 -0.794,0.779 -0.595,1.439 0.925,2.977 4.399,8.947 10.419,17.912 6.02,8.964 10.055,15.298 12.107,19.004 4.431,8.004 6.648,14.389 6.648,19.152 0,1.985 -0.331,3.672 -0.992,5.061 -1.324,2.712 -4.465,4.069 -9.427,4.069 -7.74,0 -15.746,-3.342 -24.015,-10.023 -6.616,-5.359 -11.677,-11.032 -15.183,-17.019 -3.508,-5.988 -5.259,-11.33 -5.259,-16.026 0,-6.748 2.977,-10.189 8.931,-10.32 l 0.794,0 c 7.607,0 13.496,2.744 17.664,8.236 1.587,2.183 2.381,4.034 2.381,5.557 0,1.521 -0.331,2.481 -0.992,2.877 -0.067,0.066 -0.099,0.2 -0.099,0.398 0,0.198 0.198,0.298 0.595,0.298 1.72,0 2.58,-1.126 2.58,-3.374 0,-1.39 -0.679,-3.276 -2.034,-5.657 -1.357,-2.381 -3.756,-4.631 -7.195,-6.748 -3.44,-2.118 -7.442,-3.175 -12.007,-3.175 -4.565,0 -8.204,1.422 -10.916,4.266 -2.714,2.844 -4.069,6.582 -4.069,11.214 0,10.452 6.813,21.138 20.443,32.053 3.506,2.779 8.12,5.061 13.843,6.847 5.722,1.787 11.197,2.68 16.423,2.68 5.226,0 8.783,-0.91 10.668,-2.729 1.886,-1.821 2.828,-4.251 2.828,-7.294 0,-4.631 -1.885,-10.883 -5.656,-18.755 -1.191,-2.448 -3.87,-6.914 -8.038,-13.398 l 7.641,9.726 c 3.704,4.828 10.122,11.71 19.252,20.641 1.985,1.918 4.183,3.523 6.599,4.813 2.414,1.29 4.481,1.935 6.202,1.935 2.382,0 3.573,-1.258 3.573,-3.771 0,-2.183 -1.042,-5.475 -3.126,-9.874 -2.084,-4.4 -4.185,-8.568 -6.302,-12.504 -2.118,-3.936 -3.408,-6.516 -3.87,-7.74 -0.464,-1.225 -0.794,-2.2 -0.992,-2.928 -0.199,-0.728 -0.332,-1.125 -0.397,-1.19 0.198,0.33 2.381,2.86 6.549,7.592 4.168,4.728 10.321,10.632 18.458,17.713 L 79.587,55.87 c 1.256,1.057 2.381,1.588 3.373,1.588 0.993,0 1.802,-0.828 2.432,-2.481 0.628,-1.655 0.942,-2.995 0.942,-4.019 0,-1.026 -1.587,-3.16 -4.763,-6.401 C 73.301,36.088 66.289,26.826 60.534,16.771 54.778,6.714 51.9,-0.463 51.9,-4.763 c 0,-1.124 0.199,-1.901 0.596,-2.332 0.397,-0.429 1.025,-0.561 1.885,-0.397 0.859,0.166 2.662,0.844 5.408,2.034 2.745,1.191 4.548,1.886 5.409,2.084 0.33,-0.133 0.496,-0.298 0.496,-0.496 0,-0.992 -1.737,-2.382 -5.21,-4.168 -3.473,-1.786 -6.088,-2.679 -7.839,-2.679 -1.754,0 -2.829,0.298 -3.226,0.893 -1.19,1.721 -1.786,3.805 -1.786,6.252 0,5.689 3.042,13.859 9.13,24.51 3.903,6.682 9.923,15.68 18.06,26.993 C 68.472,42.771 59.872,34.864 49.022,24.214 38.171,13.562 31.061,5.226 27.687,-0.794 c -1.722,-3.11 -3.806,-4.664 -6.252,-4.664 -1.126,0 -1.687,0.397 -1.687,1.191 0,0.264 0.677,1.454 2.034,3.573 1.355,2.116 4.349,7.078 8.981,14.885 11.378,19.781 17.069,31.689 17.069,35.725 0,1.057 -0.365,1.587 -1.092,1.587 -1.059,0 -2.615,-0.893 -4.664,-2.679 C 34.732,42.672 26.925,34.634 18.656,24.71 10.386,14.786 4.168,6.55 0,0"
             style="fill:#000000;fill-opacity:1;fill-rule:nonzero;stroke:none"
             id="path50"
             inkscape:connector-curvature="0" /></g><g
           id="g52"
           transform="translate(167.9548,170.1804)"><path
             d="m 0,0 14.29,0.198 c 0.198,-0.134 0.297,-0.232 0.297,-0.298 0,-0.595 -4.118,-1.423 -12.354,-2.48 -8.237,-1.06 -12.687,-1.688 -13.347,-1.886 -1.258,-1.126 -3.573,-4.482 -6.947,-10.072 -3.374,-5.592 -5.061,-9.676 -5.061,-12.256 0,-2.448 1.687,-3.672 5.061,-3.672 1.588,0 3.672,0.496 6.252,1.489 2.58,0.993 4.565,1.918 5.954,2.779 3.705,2.314 7.674,5.721 11.908,10.22 0.926,0.926 1.554,1.39 1.886,1.39 0.198,0 0.297,-0.198 0.297,-0.596 0,-0.396 -0.496,-1.19 -1.488,-2.381 -3.441,-4.235 -7.311,-7.641 -11.61,-10.221 -5.161,-3.176 -10.09,-4.764 -14.786,-4.764 -2.052,0 -3.722,0.447 -5.012,1.34 -1.29,0.894 -1.935,2.695 -1.935,5.408 0,2.712 1.191,6.434 3.573,11.164 2.381,4.73 4.2,8.252 5.458,10.569 -0.928,-0.199 -1.722,-0.297 -2.382,-0.297 -1.92,0 -2.878,0.76 -2.878,2.282 0,1.124 0.794,1.918 2.382,2.382 0.198,0 0.496,0.032 0.893,0.098 l 5.756,0 c 1.19,1.522 2.545,3.275 4.068,5.26 1.851,2.382 3.109,3.573 3.771,3.573 0.661,0 1.489,-0.265 2.481,-0.794 0.992,-0.531 1.488,-1.159 1.488,-1.886 0,-0.729 -1.587,-2.878 -4.763,-6.45 C -5.028,0.032 -2.778,0 0,0"
             style="fill:#000000;fill-opacity:1;fill-rule:nonzero;stroke:none"
             id="path54"
             inkscape:connector-curvature="0" /></g><g
           id="g56"
           transform="translate(186.8591,143.4861)"><path
             d="m 0,0 c 0.893,-0.662 1.339,-1.406 1.339,-2.233 0,-0.829 -0.414,-1.555 -1.24,-2.183 -0.828,-0.63 -1.737,-0.943 -2.729,-0.943 -0.992,0 -1.902,0.347 -2.729,1.042 -0.828,0.695 -1.24,1.504 -1.24,2.431 0,1.918 1.256,2.878 3.77,2.878 C -1.836,0.992 -0.893,0.66 0,0"
             style="fill:#000000;fill-opacity:1;fill-rule:nonzero;stroke:none"
             id="path58"
             inkscape:connector-curvature="0" /></g><g
           id="g60"
           transform="translate(475.5064,162.9639)"><path
             d="m 0,0 c -0.656,0.402 -1.31,0.808 -1.961,1.219 -3.074,2.895 -6.236,5.725 -9.474,8.399 0.517,0.38 0.775,1.105 0.225,1.673 -1.561,1.617 -3.2,3.161 -4.855,4.688 -0.674,1.473 -1.353,2.943 -2.03,4.415 -0.162,0.354 -0.325,0.709 -0.487,1.064 C -9.152,12.596 0.404,3.707 10.351,-4.524 6.762,-3.336 3.327,-1.792 0,0 m -43.046,44.9 c -7.164,5.998 -14.234,12.389 -21.813,17.938 0.674,0.282 1.23,0.822 1.502,1.498 2.455,2.58 4.819,5.228 7.169,7.894 4.005,-6.449 8.549,-12.606 12.884,-18.816 3.565,-5.109 6.989,-11.03 10.928,-16.271 0.247,-0.503 0.495,-1 0.742,-1.502 -3.82,3.135 -7.723,6.169 -11.412,9.259 m -70.281,35.329 c -2.916,2.558 -5.924,5.034 -8.932,7.481 -1.659,5.728 -3.395,11.437 -5.209,17.114 -0.91,4.384 -1.931,8.728 -3.11,12.97 3.17,3.586 6.332,7.181 9.454,10.828 -0.056,-0.094 -0.112,-0.192 -0.099,-0.337 0.927,-10.694 5.246,-21.346 9.477,-31.113 3.352,-7.739 7.358,-16.041 12.457,-23.112 -5.037,1.496 -9.771,3.539 -14.038,6.169 m -25.962,4.737 c -1.504,-8.614 -4.796,-16.734 -9.771,-24.044 -0.263,0.523 -0.538,1.041 -0.802,1.563 -2.403,7.492 -4.809,14.983 -7.231,22.469 -0.106,0.328 -0.306,0.554 -0.536,0.724 0.093,0.997 -0.15,1.974 -0.731,3.116 0.673,0.011 1.324,0.225 1.859,0.781 5.977,6.201 11.826,12.473 17.586,18.821 -0.197,-7.807 -0.307,-15.618 -0.374,-23.43 m -31.02,-18.301 c -2.792,2.793 -5.343,5.811 -7.759,8.935 -2.284,3.834 -4.578,7.662 -6.842,11.499 -0.294,0.499 -0.745,0.556 -1.139,0.4 -0.214,0.369 -0.439,0.731 -0.649,1.101 3.206,1.042 6.231,2.476 8.933,4.24 2.562,-5.875 5.975,-11.423 9.151,-16.97 3.874,-6.768 7.585,-13.652 12.14,-19.993 0.16,-0.223 0.353,-0.347 0.551,-0.429 0.352,-0.509 0.684,-1.045 1.041,-1.547 -5.309,4.039 -10.628,7.964 -15.427,12.764 m -17.685,1.674 c -7.74,5.566 -13.609,12.578 -19.868,19.552 2.968,-0.851 6.097,-1.261 9.266,-1.251 4.948,-6.145 10.552,-11.841 15.903,-17.61 2.341,-2.525 4.632,-5.218 6.992,-7.853 -4.205,2.127 -8.364,4.337 -12.293,7.162 m -58.608,3.162 c -1.573,-0.545 -3.14,-1.098 -4.703,-1.658 4.458,3.608 8.665,7.501 13.191,11.039 3.377,2.64 6.946,5.01 10.412,7.522 0.034,-0.064 0.059,-0.13 0.095,-0.192 0.011,-0.153 0.045,-0.31 0.127,-0.469 0.815,-1.573 1.791,-3.12 2.841,-4.638 -7.33,-3.821 -14.653,-7.689 -21.963,-11.604 m -23.178,-9.314 c -4.183,-2.702 -8.437,-5.297 -12.703,-7.866 -2.133,-1.285 -4.284,-2.54 -6.434,-3.796 -1.44,-0.825 -2.876,-1.656 -4.309,-2.494 -0.494,-0.237 -0.871,-0.429 -1.195,-0.602 0.948,2.518 1.881,5.04 2.794,7.57 13.13,4.834 26.018,11.169 38.396,18.27 -5.472,-3.759 -10.971,-7.479 -16.549,-11.082 M 75.509,-38.2 c -1.801,4.323 -3.798,8.528 -5.933,12.66 -0.01,0.091 0.014,0.171 -0.005,0.264 -1.488,7.341 -6.521,13.953 -10.269,20.355 -4.254,7.266 -8.436,14.623 -13.054,21.663 -1.196,1.824 -3.319,1.942 -4.94,0.637 C 38.05,14.756 34.76,12.193 31.797,9.247 21.632,16.137 11.636,23.274 1.832,30.68 -17.899,45.585 -34.73,63.351 -53.411,79.379 c -1.452,1.246 -3.365,1.006 -4.451,-0.573 -2.404,-3.496 -4.775,-6.992 -7.069,-10.552 -8.629,9.76 -17.531,19.238 -25.742,29.366 -9.365,11.55 -16.86,24.333 -25.85,36.117 -0.566,0.742 -1.733,0.686 -2.262,0.112 -0.068,0.123 -0.179,0.178 -0.299,0.199 -0.731,0.823 -1.976,1.14 -3.027,0.099 -8.14,-8.058 -16.38,-16.025 -24.104,-24.488 -3.867,-4.236 -7.656,-8.542 -11.467,-12.829 -2.415,-2.717 -9.874,-0.33 -14.723,1.333 0.152,2.122 -2.156,4.284 -4.354,2.858 -3.408,-2.21 -6.914,-3.966 -10.594,-5.225 -11.42,-0.126 -22.769,-3.097 -32.399,5.05 -0.045,0.754 -0.914,1.472 -1.81,1.004 -17.684,-9.243 -34.986,-19.192 -52.305,-29.099 -8.475,-4.848 -17.101,-9.5 -25.348,-14.73 -1.591,-1.009 -3.206,-2.117 -4.773,-3.315 -0.089,-0.047 -0.177,-0.099 -0.251,-0.184 -0.015,-0.017 -0.03,-0.034 -0.045,-0.051 -3.172,-2.462 -6.084,-5.341 -8.086,-8.719 -0.399,0.131 -0.856,-0.228 -0.679,-0.706 0.036,-0.098 0.079,-0.186 0.121,-0.276 -0.04,-0.075 -0.069,-0.156 -0.108,-0.232 -0.332,-0.056 -0.538,-0.419 -0.359,-0.704 -0.009,-0.028 0,-0.056 -0.006,-0.085 -0.16,-0.351 -0.349,-0.688 -0.487,-1.049 -0.166,-0.436 0.348,-0.841 0.695,-0.497 0.335,-2.031 2.422,-4.09 4.519,-4.792 4.54,-1.52 10.487,0.525 15.141,3.179 6.777,2.661 13.677,7.25 18.036,10.907 0.751,0.504 1.523,0.97 2.268,1.485 12.548,6.255 25.231,12.355 37.683,18.85 5.123,1.732 10.23,3.506 15.3,5.322 13.786,-21.419 38.437,-39.328 62.3,-43.831 6.882,-3.234 14.762,-4.569 21.584,-2.501 0.956,0.29 1.013,1.737 0.253,2.208 0.701,0.442 1.05,1.357 0.649,2.146 -0.377,0.742 -0.777,1.468 -1.158,2.206 -0.584,1.693 -1.698,3.373 -2.371,4.687 -2.754,5.384 -5.671,10.676 -8.589,15.97 1.471,2.072 2.808,4.2 3.999,6.384 -0.907,-5.715 4.158,-9.854 8.948,-12.529 8.76,-4.891 18.878,-10.839 28.593,-13.436 0.836,-0.224 1.459,0.287 1.629,0.929 0.199,0.129 0.37,0.301 0.443,0.565 3.084,11.205 -4.059,20.451 -10.516,29.614 -1.37,3.016 -2.773,6.017 -4.262,8.974 0.595,-0.399 1.198,-0.786 1.794,-1.182 -0.048,-0.123 -0.056,-0.261 0.062,-0.4 7.582,-8.979 18.937,-15.536 29.06,-21.233 10.511,-5.916 22.194,-11.304 34.07,-13.687 0.282,-0.056 0.528,-0.032 0.74,0.048 0.772,-0.882 1.601,-1.72 2.398,-2.582 5.729,-8.98 13.368,-17.057 20.774,-24.513 9.232,-9.295 19.616,-18.102 31.04,-24.576 10.125,-5.738 21.856,-8.235 33.261,-5.489 0.681,0.164 1.674,0.474 2.675,0.907 1.241,0.463 2.461,1.009 3.629,1.746 5.623,-5.992 11.326,-11.913 17.37,-17.424 2.25,-3.309 4.605,-6.489 7.095,-9.432 0.769,-0.908 1.701,-0.873 2.433,-0.401 0.442,-0.385 1,-0.357 1.428,-0.068 0.069,-0.013 0.136,-0.016 0.206,-0.017 0.281,-0.29 0.562,-0.58 0.842,-0.87 0.194,-0.201 0.416,-0.295 0.642,-0.346 0.294,-0.377 0.587,-0.755 0.881,-1.132 1.155,-1.483 3.666,0.067 2.498,1.546 -0.052,0.067 -0.104,0.133 -0.156,0.2 1.042,0.124 1.997,0.998 1.511,2.165"
             style="fill:#000000;fill-opacity:1;fill-rule:nonzero;stroke:none"
             id="path62"
             inkscape:connector-curvature="0" /></g><g
           id="g64"
           transform="translate(426.3233,149.9697)"><path
             d="m 0,0 0.014,0 -0.474,0.889 -0.002,0.004 -4.786,8.985 2.353,0 -3.56,6.685 3.107,0 -12.93,24.277 -12.931,-24.277 3.107,0 -3.56,-6.685 2.353,0 -3.444,-6.466 -0.968,1.819 1.686,0 -2.551,4.789 2.226,0 -9.265,17.395 -9.265,-17.395 2.227,0 -2.551,-4.789 1.686,0 -2.279,-4.278 -4.754,8.925 2.353,0 -3.56,6.685 3.107,0 -12.93,24.277 -12.931,-24.277 3.107,0 -3.56,-6.685 2.353,0 -3.444,-6.466 -0.969,1.819 1.686,0 -2.551,4.789 2.227,0 -9.265,17.395 -9.265,-17.395 2.227,0 -2.551,-4.789 1.686,0 -3.77,-7.078 9.771,0 0,-4.147 c 0,-0.286 0.234,-0.521 0.521,-0.521 l 2.219,0 c 0.286,0 0.521,0.235 0.521,0.521 l 0,4.147 10.314,0 9.018,0 0,-3.94 c 0,-0.401 0.328,-0.728 0.728,-0.728 l 3.096,0 c 0.401,0 0.728,0.327 0.728,0.728 l 0,3.94 12.397,0 2.94,0 6.831,0 0,-4.147 c 0,-0.286 0.234,-0.521 0.521,-0.521 l 2.219,0 c 0.286,0 0.521,0.235 0.521,0.521 l 0,4.147 10.314,0 9.018,0 0,-3.94 c 0,-0.401 0.328,-0.728 0.728,-0.728 l 3.097,0 c 0.4,0 0.727,0.327 0.727,0.728 l 0,3.94 15.338,0 L 0,0 Z"
             style="fill:#000000;fill-opacity:1;fill-rule:nonzero;stroke:none"
             id="path66"
             inkscape:connector-curvature="0" /></g></g></g></g></svg>